<?xml version="1.0" standalone="no"?>
<!DOCTYPE svg PUBLIC "-//W3C//DTD SVG 20010904//EN"
 "http://www.w3.org/TR/2001/REC-SVG-20010904/DTD/svg10.dtd">
<svg version="1.0" xmlns="http://www.w3.org/2000/svg"
 width="654.000000pt" height="600.000000pt" viewBox="0 0 654.000000 600.000000"
 preserveAspectRatio="xMidYMid meet">

<g transform="translate(0.000000,600.000000) scale(0.100000,-0.100000)"
fill="#000000" stroke="none">
<path d="M440 5990 c0 -5 7 -10 15 -10 8 0 15 5 15 10 0 6 -7 10 -15 10 -8 0
-15 -4 -15 -10z"/>
<path d="M540 5973 c-24 -30 -22 -34 9 -26 16 4 21 11 18 24 -4 14 0 19 14 19
20 0 23 -4 33 -52 7 -32 -13 -39 -21 -8 -6 24 -16 25 -33 5 -10 -12 -9 -16 4
-21 9 -3 16 -10 16 -15 0 -14 -28 -11 -34 4 -3 6 -5 3 -3 -8 3 -28 54 -33 73
-8 12 16 13 16 14 1 0 -18 59 -36 79 -23 7 3 8 0 5 -9 -4 -11 -19 -16 -48 -16
-30 0 -37 3 -26 10 10 7 -8 9 -60 8 -67 -1 -70 -2 -30 -8 53 -8 42 -11 -60
-15 -41 -1 -83 2 -94 7 -12 7 -16 7 -12 0 8 -14 -29 -18 -203 -20 -103 -2
-158 1 -167 9 -12 10 -14 -41 -14 -320 0 -258 3 -331 13 -332 33 -2 50 -9 64
-28 8 -12 23 -21 33 -21 10 0 21 -4 24 -8 6 -9 62 -8 94 2 20 7 25 3 35 -23 6
-17 15 -31 19 -31 4 0 8 -6 8 -14 0 -7 14 -28 31 -45 23 -24 34 -30 42 -22 6
6 22 11 36 11 23 -1 24 -2 8 -11 -9 -5 -22 -7 -28 -3 -7 4 -10 1 -7 -7 5 -16
87 -19 125 -6 18 7 21 5 16 -14 -4 -16 -2 -20 8 -17 8 3 13 15 11 27 -2 12 4
44 13 72 10 29 15 63 11 80 -3 16 -1 29 4 29 6 0 10 6 10 14 0 7 7 19 15 26 8
7 15 21 15 31 0 21 54 53 76 45 8 -3 14 1 14 9 0 32 12 23 124 -93 38 -40 39
-42 23 -66 -9 -13 -27 -35 -39 -49 -13 -14 -39 -45 -58 -68 -36 -44 -159 -186
-195 -225 -11 -12 -42 -48 -70 -79 -27 -31 -71 -80 -97 -108 l-47 -52 -77 80
c-42 44 -117 123 -166 175 l-90 95 5 -70 c7 -94 20 -150 35 -149 6 1 24 2 39
3 21 1 24 4 15 13 -7 7 -12 19 -12 28 1 13 2 13 13 -1 7 -9 21 -18 32 -20 11
-3 21 -14 23 -26 2 -15 8 -20 19 -16 13 5 15 2 10 -11 -6 -14 -3 -17 9 -12 10
4 33 -12 68 -50 42 -43 52 -60 48 -80 -4 -20 -1 -23 14 -18 16 5 16 4 4 -5
-13 -9 -13 -12 -1 -23 11 -10 14 -10 18 0 9 23 32 12 65 -30 18 -22 44 -53 59
-68 22 -24 23 -29 10 -39 -14 -10 -13 -11 6 -7 16 3 37 -9 73 -42 27 -25 50
-49 50 -53 0 -13 -32 -19 -45 -9 -9 8 -15 8 -20 0 -3 -5 1 -10 9 -10 9 0 16
-7 16 -15 0 -8 5 -15 10 -15 6 0 10 7 10 15 0 8 7 15 15 15 8 0 15 -4 15 -10
0 -5 6 -10 13 -10 7 0 68 -53 135 -118 67 -65 124 -113 126 -107 4 11 145
-132 147 -149 1 -6 1 -16 0 -21 0 -6 54 -67 122 -136 67 -69 142 -148 166
-175 69 -78 312 -333 476 -499 155 -156 219 -224 389 -409 103 -111 130 -124
106 -49 -7 21 -21 50 -31 65 -11 14 -19 29 -19 33 0 4 -16 26 -36 48 -67 74
-104 200 -121 414 -8 106 22 173 79 173 34 0 34 2 6 41 -20 27 -22 42 -24 192
-3 263 -15 319 -79 386 -65 68 -105 116 -111 133 -3 10 -20 33 -37 51 -18 19
-63 69 -102 112 -38 43 -92 101 -118 129 -59 62 -67 89 -36 122 12 13 33 24
46 24 21 0 28 10 24 34 -1 4 2 13 7 20 14 17 7 42 -27 95 -31 48 -31 48 -25
149 7 100 17 137 32 117 4 -5 19 -21 34 -34 l27 -24 2 234 c1 129 2 250 1 269
-1 19 1 55 4 80 5 36 8 41 16 26 8 -14 17 -16 45 -11 24 4 33 3 28 -4 -3 -7 2
-11 14 -11 12 0 21 5 21 10 0 6 23 10 51 10 31 0 48 -4 44 -10 -3 -5 -2 -10 4
-10 5 0 13 5 16 10 9 15 34 12 52 -5 8 -8 19 -12 25 -9 7 4 6 9 -2 14 -9 6 -6
12 12 24 19 12 32 14 57 6 43 -12 121 -2 121 16 0 8 5 14 10 14 6 0 10 -7 10
-15 0 -23 45 -18 63 8 14 20 16 20 16 3 1 -14 6 -17 26 -12 14 4 25 3 25 -1 0
-12 71 -14 85 -3 9 7 21 7 41 0 15 -6 34 -8 42 -5 8 3 26 -2 39 -10 21 -14 25
-14 38 -1 18 18 121 15 155 -5 18 -11 24 -11 27 -1 3 6 11 12 18 12 7 0 15 6
17 12 6 16 34 -10 197 -176 69 -71 153 -157 186 -191 107 -109 269 -284 277
-300 7 -12 3 -15 -20 -15 -17 0 -32 6 -36 15 -3 8 -17 15 -31 15 -37 0 -80 25
-105 60 -11 16 -24 29 -28 29 -24 -4 -42 3 -42 16 0 18 17 20 23 3 2 -7 8 -9
13 -5 5 4 4 11 -2 15 -5 4 -14 18 -20 30 -9 23 -10 23 -24 -12 -12 -31 -18
-36 -46 -36 -18 0 -44 -4 -58 -10 -21 -8 -29 -6 -45 11 -11 12 -21 16 -25 10
-4 -6 -16 -5 -34 5 -34 18 -42 18 -42 -1 0 -22 -64 -20 -87 3 -10 9 -28 26
-40 36 l-22 18 12 -31 c10 -27 9 -32 -8 -45 -15 -11 -22 -11 -28 -3 -21 32 24
-120 60 -202 19 -42 21 -52 8 -48 -11 5 -15 0 -15 -16 -1 -21 -1 -22 -15 -3
-13 17 -15 17 -15 3 0 -30 22 -122 33 -135 5 -7 7 -15 4 -19 -4 -3 -20 22 -35
55 l-29 62 -6 -41 c-3 -22 -1 -55 4 -72 5 -18 6 -46 3 -63 l-6 -31 158 0 c106
-1 160 -5 162 -12 2 -6 8 -9 13 -6 13 9 173 -15 180 -26 3 -6 25 -10 48 -11
23 0 44 -4 47 -9 3 -5 17 -9 32 -9 15 0 42 -9 60 -20 18 -11 40 -20 48 -20 11
0 14 -5 10 -16 -4 -10 0 -18 11 -21 20 -5 56 -69 48 -84 -4 -5 1 -9 9 -9 9 0
16 -6 16 -13 0 -8 9 -22 20 -32 11 -10 20 -28 20 -41 0 -15 9 -27 28 -36 18
-9 28 -22 30 -41 2 -15 9 -27 16 -27 20 0 45 -53 39 -85 -5 -29 -5 -29 10 -10
19 25 36 11 19 -15 -9 -15 -9 -20 -1 -20 8 0 10 -14 6 -40 -4 -30 -2 -40 9
-40 9 0 14 -11 14 -29 0 -48 -22 -135 -37 -148 -12 -9 -12 -13 4 -21 16 -10
15 -12 -10 -21 -16 -6 -26 -15 -23 -19 10 -16 -58 -32 -92 -22 -18 5 -39 7
-46 4 -7 -3 -18 1 -24 9 -13 15 -92 5 -149 -19 -17 -8 -35 -14 -40 -14 -14 0
-63 -58 -63 -74 0 -7 -11 -24 -25 -38 -23 -23 -33 -25 -166 -32 -87 -4 -146
-3 -153 3 -6 6 -48 24 -91 42 -73 29 -92 32 -220 37 -140 4 -287 -10 -293 -28
-2 -6 -10 -10 -17 -10 -7 0 -16 -12 -19 -26 -5 -17 -12 -24 -21 -20 -8 3 -17
1 -20 -4 -3 -5 -22 -1 -43 10 -39 20 -119 29 -141 16 -8 -5 -10 -18 -7 -32 4
-15 2 -24 -5 -24 -7 0 -9 -3 -6 -7 4 -3 16 2 27 12 19 17 22 17 87 -16 53 -27
69 -40 71 -59 4 -27 19 -50 33 -50 5 0 9 20 9 44 0 126 140 185 374 158 194
-22 296 -83 296 -177 0 -37 22 -27 33 16 13 52 24 59 85 59 46 0 58 -4 76 -25
14 -16 23 -42 25 -67 1 -23 6 -49 11 -59 6 -10 10 -34 10 -55 0 -21 3 -34 7
-31 9 9 32 -24 33 -46 0 -13 5 -17 18 -12 16 4 19 0 20 -25 1 -34 -13 -41 -21
-10 -3 12 -14 20 -26 20 -18 0 -20 4 -15 25 5 21 3 25 -15 25 -18 0 -20 -4
-15 -27 4 -16 13 -39 20 -53 25 -50 28 -97 8 -123 -11 -14 -25 -33 -31 -43 -7
-11 -24 -36 -38 -57 -27 -41 -33 -77 -12 -77 7 0 26 -12 42 -27 38 -36 73 -54
80 -42 9 14 35 11 35 -5 0 -8 17 -20 38 -26 56 -18 84 -60 40 -60 -19 0 -20 2
-8 10 13 8 12 10 -2 10 -10 0 -18 -4 -18 -10 0 -5 -15 -10 -33 -10 -50 0 -147
-21 -141 -31 3 -5 20 -16 39 -25 30 -14 38 -14 51 -3 14 11 19 10 33 -8 13
-15 22 -18 34 -11 24 13 37 2 37 -30 0 -47 -14 -57 -82 -59 -35 -1 -94 -6
-133 -12 -38 -5 -77 -10 -85 -11 -13 0 -13 -1 0 -10 9 -6 54 -7 113 -4 78 6
101 4 107 -7 5 -8 4 -19 -2 -26 -7 -9 -7 -13 1 -13 6 0 11 -14 11 -31 0 -26 3
-29 20 -24 11 3 25 3 32 -2 9 -5 1 -10 -22 -14 -34 -5 -34 -6 -11 -15 34 -15
89 13 93 46 2 14 8 24 13 23 6 0 16 5 23 13 7 8 8 14 2 14 -5 0 -10 20 -10 45
0 25 4 45 8 45 5 0 24 14 42 30 18 17 37 30 42 30 4 0 8 6 8 14 0 14 23 28 51
31 60 7 69 14 69 56 0 73 -62 147 -138 165 -31 8 -73 34 -54 34 6 0 12 9 12
20 0 11 7 20 15 20 8 0 15 5 15 10 0 6 -5 10 -11 10 -18 0 -70 41 -64 50 3 5
-2 15 -10 23 -8 9 -15 22 -15 29 -1 15 -87 108 -101 108 -15 0 -10 27 6 34 8
3 14 11 13 18 -2 8 9 14 25 16 25 3 40 22 16 22 -6 0 -5 6 3 13 20 20 80 29
127 18 33 -7 41 -6 41 6 0 8 5 11 10 8 6 -4 8 -11 5 -16 -8 -11 -11 -11 60 2
32 6 64 17 72 25 8 8 20 14 27 14 6 0 20 14 29 30 10 17 27 30 37 30 10 0 22
5 25 10 5 8 12 7 22 -1 13 -11 13 -14 -3 -26 -16 -12 -14 -13 17 -13 32 -1 33
-1 15 -15 -11 -8 -14 -15 -8 -15 7 0 13 -12 13 -27 1 -20 3 -23 6 -8 2 11 9
31 16 44 7 13 12 57 12 97 0 62 2 70 12 51 26 -47 6 -202 -37 -286 -10 -21
-16 -42 -12 -46 4 -5 2 -5 -5 -2 -6 4 -22 -6 -36 -22 -28 -34 -76 -61 -109
-61 -13 0 -43 -7 -68 -15 -45 -14 -45 -14 41 -8 65 4 88 2 94 -7 6 -10 4 -12
-9 -7 -12 5 -16 3 -14 -5 3 -7 15 -14 27 -16 17 -3 21 -8 17 -23 -3 -10 -9
-28 -12 -38 -4 -13 0 -20 11 -23 14 -3 13 -8 -9 -41 -27 -39 -33 -63 -17 -69
4 -1 11 -14 15 -28 3 -14 3 -19 0 -12 -8 17 -31 15 -38 -4 -4 -9 -4 -19 -1
-22 3 -3 5 0 5 6 0 20 17 13 23 -9 4 -13 11 -19 19 -16 23 8 51 -19 43 -42 -7
-22 10 -30 18 -8 3 7 6 6 6 -5 1 -9 -3 -20 -9 -23 -6 -3 -10 -14 -10 -24 0
-10 -7 -24 -15 -31 -8 -7 -15 -21 -15 -32 0 -15 -3 -17 -19 -8 -16 8 -21 6
-26 -10 -3 -11 -12 -20 -19 -20 -14 0 -36 -41 -36 -66 0 -8 -4 -12 -10 -9 -5
3 -10 -1 -10 -9 0 -8 5 -18 10 -21 17 -10 11 -25 -9 -25 -11 0 -23 -5 -26 -11
-4 -6 -14 -8 -22 -5 -8 3 -24 -1 -36 -9 -12 -8 -29 -15 -39 -15 -10 0 -18 -6
-18 -13 0 -7 -9 -13 -20 -14 -11 -1 -20 2 -20 7 0 4 -16 -7 -35 -26 -20 -19
-34 -38 -31 -43 3 -5 -6 -21 -20 -36 -17 -19 -26 -40 -26 -62 0 -18 -4 -33
-10 -33 -5 0 -6 -4 -3 -10 3 -5 -3 -10 -14 -10 -12 0 -21 -4 -21 -9 0 -4 -12
-20 -26 -34 -20 -21 -24 -32 -19 -55 5 -24 1 -32 -19 -45 -13 -9 -26 -26 -28
-38 -2 -15 -11 -23 -24 -24 -12 -1 -29 -9 -38 -17 -20 -21 -51 -13 -65 18 -12
27 -26 31 -35 9 -3 -8 -12 -15 -20 -15 -8 0 -18 -9 -21 -20 -4 -12 -14 -19
-23 -18 -11 2 -17 -3 -16 -14 1 -14 -8 -15 -60 -12 -82 6 -136 23 -167 53 -22
21 -35 25 -69 22 -28 -2 -46 2 -51 11 -7 10 -9 10 -9 -3 0 -9 22 -27 53 -42
28 -15 63 -37 77 -49 14 -13 34 -25 45 -26 11 -2 27 -10 36 -18 8 -8 22 -14
30 -14 8 0 24 -7 36 -15 11 -8 40 -17 64 -21 24 -3 54 -13 66 -20 12 -8 35
-14 50 -14 42 0 73 -11 73 -25 0 -7 7 -16 16 -19 8 -3 13 -10 10 -15 -3 -5 1
-14 9 -21 13 -10 13 -14 0 -27 -23 -23 -18 -34 11 -23 17 7 31 7 42 0 15 -8
14 -9 -5 -10 -13 0 -30 -11 -39 -25 -9 -14 -23 -25 -31 -25 -16 0 -56 -87 -49
-107 3 -7 12 -10 21 -7 8 4 21 2 28 -4 6 -5 33 -13 60 -16 26 -4 47 -11 47
-17 0 -19 39 -8 58 16 11 14 24 25 30 25 5 0 12 7 16 15 7 18 26 20 26 2 0 -7
9 -18 20 -25 21 -13 28 -42 10 -42 -5 0 -10 -7 -10 -15 0 -8 5 -15 10 -15 6 0
10 5 10 10 0 6 13 10 28 10 15 0 33 5 40 12 9 9 12 8 12 -6 0 -10 -5 -14 -11
-11 -6 4 -10 1 -8 -6 4 -31 -2 -39 -32 -39 -25 0 -44 -14 -102 -73 -84 -85
-132 -112 -189 -104 -34 5 -39 3 -33 -11 35 -85 38 -103 20 -122 -11 -12 -31
-20 -51 -20 -18 0 -36 -5 -39 -10 -6 -10 -70 -40 -84 -40 -14 1 45 40 60 40 9
0 19 7 23 15 3 8 12 15 21 15 8 0 15 5 15 11 0 6 9 9 20 6 15 -4 20 0 20 15 0
16 -3 18 -13 9 -11 -8 -18 -6 -32 9 -10 11 -26 20 -37 20 -10 0 -26 9 -35 20
-10 11 -28 20 -40 20 -12 0 -38 13 -56 30 -19 16 -38 30 -41 30 -42 0 -399
413 -466 539 -20 37 -59 90 -60 81 0 -12 42 -126 54 -145 11 -18 34 -87 36
-110 1 -5 8 -14 16 -18 8 -4 14 -14 14 -22 0 -8 12 -26 26 -42 14 -16 23 -35
21 -45 -4 -12 1 -18 13 -18 31 0 30 -51 -2 -85 -37 -40 -35 -62 12 -115 26
-29 39 -52 36 -64 -5 -17 -3 -18 10 -4 12 12 13 20 5 36 -8 15 -7 23 4 32 9 7
17 11 19 9 2 -2 15 -22 30 -43 29 -44 34 -71 11 -62 -8 3 -22 9 -32 13 -10 4
-14 3 -9 -5 3 -6 2 -13 -3 -16 -4 -3 -11 -20 -15 -37 -8 -40 -25 -34 -51 17
-11 21 -22 41 -26 44 -3 3 -18 22 -33 42 -26 34 -26 43 -3 39 4 0 7 4 7 9 0
15 -16 12 -33 -5 -13 -13 -16 -11 -21 10 -4 17 -13 25 -27 25 -15 0 -19 5 -15
15 3 9 -4 21 -18 30 -25 16 -125 202 -152 282 -26 75 -20 255 11 368 37 133
35 138 -33 76 -23 -21 -42 -36 -42 -32 0 3 -16 -12 -35 -34 -31 -35 -35 -46
-33 -87 2 -53 1 -55 -27 -60 -19 -3 -35 -16 -35 -29 0 -3 14 -5 30 -4 36 2 41
-24 10 -55 -11 -11 -20 -17 -20 -14 0 4 -7 1 -16 -7 -14 -11 -14 -13 0 -21 9
-5 16 -19 16 -31 0 -12 -4 -17 -8 -12 -4 6 -16 17 -26 25 -18 14 -19 13 -13
-12 4 -15 3 -30 -3 -33 -5 -3 -10 -21 -10 -40 0 -20 -6 -35 -15 -39 -9 -3 -15
-18 -15 -36 0 -17 -4 -39 -10 -49 -5 -10 -14 -106 -20 -212 -17 -312 -27 -416
-41 -425 -5 -3 -7 -27 -5 -53 3 -30 0 -58 -10 -75 -7 -16 -14 -55 -14 -87 0
-38 -5 -61 -13 -66 -8 -4 -16 -24 -20 -44 -5 -37 -25 -84 -55 -134 -43 -70
-67 -65 293 -65 l325 0 0 55 c0 33 -4 55 -11 55 -6 0 -9 -15 -8 -34 4 -45 -7
-57 -15 -17 -3 17 -9 44 -12 60 -3 16 0 32 5 36 6 3 11 11 11 16 0 6 -4 8 -8
5 -4 -2 -14 -1 -22 5 -11 6 -3 9 24 9 31 0 37 3 28 12 -7 7 -12 21 -12 33 -1
20 -1 20 -12 0 -28 -50 -53 -39 -44 21 5 39 3 44 -14 44 -11 0 -20 7 -20 15 0
8 4 15 8 15 12 0 33 50 27 61 -10 15 -33 10 -38 -8 -4 -17 -5 -17 -6 0 0 10 4
27 10 38 8 16 7 25 -4 37 -8 9 -17 25 -20 35 -4 9 -12 16 -19 15 -9 -2 -14 12
-16 44 -2 27 -7 48 -12 48 -5 0 -11 15 -15 32 -4 18 -17 51 -30 73 -13 22 -25
63 -29 91 -7 74 -16 104 -30 104 -8 0 -11 11 -8 30 2 17 0 36 -6 43 -6 6 -13
46 -17 87 -4 41 -10 95 -15 119 -10 57 -6 151 7 159 5 4 13 14 16 22 3 8 6 2
6 -14 2 -50 23 -156 30 -152 4 3 7 -19 7 -47 0 -29 5 -79 12 -112 6 -33 16
-89 22 -125 6 -36 24 -107 41 -159 16 -52 29 -102 29 -111 0 -10 7 -21 15 -24
9 -3 15 -11 14 -18 -1 -7 1 -25 5 -41 7 -22 16 -28 46 -33 26 -4 37 -11 34
-19 -3 -7 0 -16 7 -20 14 -9 9 22 -16 105 -9 30 -19 73 -21 95 -17 149 -25
202 -34 229 -5 17 -19 58 -29 91 -11 33 -27 89 -35 125 -16 68 -19 141 -5 119
4 -7 5 -17 2 -21 -2 -5 0 -14 5 -21 5 -7 12 -32 15 -57 5 -37 64 -177 107
-253 6 -10 8 -22 5 -27 -3 -5 -1 -11 5 -15 5 -3 10 -13 10 -22 0 -9 8 -26 19
-37 35 -39 52 -294 22 -330 -7 -8 -10 -20 -6 -26 6 -9 -7 -14 -27 -11 -16 2
-7 -15 13 -27 12 -8 19 -22 18 -35 -2 -12 2 -32 9 -44 7 -12 12 -29 12 -37 0
-9 5 -16 11 -16 5 0 7 -5 4 -11 -4 -5 1 -19 10 -29 9 -10 16 -35 17 -59 0 -23
5 -41 10 -41 5 0 7 -13 3 -30 -4 -20 -3 -30 5 -30 7 0 10 -8 7 -20 -12 -44 12
-50 208 -50 160 0 184 2 179 15 -4 8 -11 15 -16 15 -6 0 -8 10 -5 21 4 13 -2
29 -14 42 -18 20 -18 22 -1 41 9 10 12 17 6 13 -6 -3 -21 1 -33 9 -18 13 -20
22 -15 49 4 26 2 39 -12 52 -15 16 -15 18 -2 21 8 2 19 17 24 34 13 44 34 48
34 7 0 -19 -7 -37 -17 -45 -16 -12 -16 -12 5 -7 18 4 22 1 22 -18 l1 -24 14
25 c14 25 14 24 16 -20 3 -82 8 -145 12 -170 2 -14 5 -33 6 -42 1 -13 10 -18
31 -18 35 0 55 27 34 47 -17 18 -7 43 17 43 21 0 26 16 7 23 -8 3 -6 6 5 6 18
1 23 -36 8 -74 -15 -38 -3 -45 80 -45 l80 0 -6 55 c-4 45 -2 55 10 55 8 0 15
7 15 16 0 8 -4 13 -9 9 -11 -6 -36 33 -27 42 2 3 0 16 -5 30 -6 17 -6 30 1 38
7 9 7 21 0 40 -9 23 -7 31 7 47 18 20 18 20 24 -4 3 -12 2 -33 -2 -45 -6 -16
-5 -22 4 -20 7 1 13 -11 14 -28 2 -16 8 -76 15 -132 l12 -103 108 0 c89 0 108
3 108 15 0 8 7 15 15 15 8 0 15 -7 15 -15 0 -8 6 -15 14 -15 8 0 16 7 20 15 3
9 0 15 -9 15 -8 0 -15 4 -15 9 0 5 -8 8 -17 7 -13 -1 -19 8 -21 31 -2 20 -9
33 -17 33 -9 0 -12 6 -9 15 9 24 18 18 39 -28 13 -29 21 -37 23 -25 8 41 112
-5 112 -49 l0 -23 614 0 c376 0 625 4 640 10 17 6 26 6 26 0 0 -7 188 -10 531
-10 l531 1 -39 26 c-21 14 -41 30 -44 36 -10 14 -39 1 -39 -18 0 -8 -9 -15
-19 -15 -11 0 -22 -6 -24 -12 -4 -10 -6 -10 -6 -1 -1 6 3 15 9 18 6 3 10 13
10 22 0 13 -3 13 -16 2 -14 -12 -16 -9 -13 18 2 17 -2 38 -10 46 -7 9 -10 21
-6 28 4 6 3 14 -2 18 -5 3 -19 40 -30 81 -18 64 -62 195 -89 265 -5 14 2 10
23 -12 17 -18 36 -33 42 -33 25 0 8 29 -44 74 -30 26 -55 54 -55 62 0 8 -11
37 -25 64 -14 27 -25 56 -25 64 0 8 -3 16 -8 18 -4 1 -29 47 -55 101 -39 82
-60 111 -121 170 -79 77 -115 107 -128 107 -5 0 -68 29 -141 64 -120 58 -138
71 -201 137 -38 41 -133 139 -210 219 -78 80 -217 226 -311 325 -93 99 -231
242 -305 318 -74 76 -138 147 -142 157 -3 9 -3 35 2 56 5 22 11 71 15 109 7
76 30 161 50 185 26 30 73 136 81 180 4 25 7 64 6 86 -1 26 4 47 13 54 17 14
21 70 5 70 -5 0 -10 7 -10 15 0 8 5 15 10 15 13 0 13 66 0 90 -5 10 -18 17
-27 16 -10 -2 -12 -1 -5 1 6 3 12 8 12 13 0 10 -40 25 -57 22 -18 -4 -16 53 2
68 11 9 14 40 14 151 0 76 3 196 6 266 4 77 3 168 -4 228 -8 71 -9 101 -1 103
12 4 -12 49 -38 70 -9 6 -11 12 -5 12 21 0 1 40 -28 57 -33 20 -34 24 -17 70
10 27 10 38 0 53 -7 11 -12 27 -12 35 0 8 -4 15 -10 15 -5 0 -10 -14 -10 -31
0 -45 -15 -27 -29 34 -13 59 -27 84 -51 89 -8 2 -27 20 -42 41 -16 20 -32 37
-37 37 -4 0 -19 10 -32 21 -52 46 -102 72 -118 62 -10 -6 -26 -7 -41 -1 -26
10 -103 69 -135 104 -67 73 -192 209 -206 223 -9 9 -29 36 -44 60 -15 24 -44
60 -64 79 -23 22 -29 32 -16 27 50 -18 59 -19 52 -2 -5 13 -1 16 18 15 14 -1
25 -7 25 -12 0 -6 7 -3 16 6 9 9 16 32 16 52 0 20 4 36 9 36 5 0 9 6 9 14 0
16 27 29 35 16 5 -8 62 -40 71 -40 2 0 1 7 -2 15 -14 35 48 4 104 -52 18 -18
39 -33 47 -33 8 0 15 -4 15 -10 0 -5 7 -10 15 -10 12 0 14 7 9 28 -7 24 -6 26
10 13 22 -18 34 -5 18 20 -12 19 -11 19 7 9 23 -12 43 -44 34 -54 -3 -3 -1 -6
5 -6 7 0 12 -4 12 -10 0 -15 87 -100 103 -100 7 0 22 -9 32 -20 10 -11 14 -20
10 -20 -5 0 10 -14 32 -30 52 -39 108 -116 123 -169 6 -23 14 -41 19 -41 4 0
14 -11 21 -25 7 -13 16 -23 19 -22 3 1 27 -9 52 -21 43 -21 100 -75 289 -278
36 -38 105 -112 155 -164 49 -52 137 -146 195 -209 58 -62 119 -128 135 -146
17 -17 56 -61 89 -96 32 -35 113 -122 179 -192 150 -159 151 -160 137 -189
-11 -22 -10 -22 4 -4 15 18 19 16 86 -54 48 -51 66 -76 57 -82 -7 -4 -14 -2
-17 5 -3 7 -12 12 -20 12 -8 0 -14 6 -12 14 3 16 -46 71 -64 71 -6 0 -17 -7
-25 -16 -7 -9 -21 -13 -33 -10 -18 5 -18 3 4 -14 20 -16 22 -20 8 -20 -20 0
-22 -8 -8 -30 5 -9 5 -19 -2 -27 -6 -8 -8 -17 -4 -20 4 -4 11 -1 17 7 6 11 11
12 17 4 4 -7 16 -14 27 -16 19 -4 19 -4 -2 -16 -16 -9 -29 -10 -42 -3 -23 13
-31 5 -31 -31 0 -16 5 -28 13 -28 9 0 12 -11 9 -36 -3 -24 0 -39 9 -45 11 -7
10 -9 -3 -9 -11 0 -18 -8 -18 -21 0 -11 -5 -29 -11 -40 -9 -17 -7 -19 13 -16
13 2 18 2 12 0 -7 -2 -14 -12 -17 -22 -4 -16 2 -18 39 -16 31 1 44 -2 44 -12
0 -7 -8 -13 -17 -13 -17 -1 -17 -1 0 -11 21 -12 23 -41 2 -33 -17 7 -21 -11
-4 -21 6 -4 16 0 22 8 9 11 18 13 35 6 33 -13 18 -28 -26 -26 -26 2 -50 12
-76 34 l-39 32 34 -6 c19 -2 31 -2 27 2 -4 4 -19 9 -32 10 -29 4 -96 56 -146
115 -19 23 -81 88 -137 146 -57 58 -103 111 -103 119 0 8 -18 26 -39 39 -22
14 -42 30 -46 36 -3 5 -16 15 -27 21 -21 11 -21 11 1 -17 12 -15 68 -76 124
-134 56 -59 129 -136 161 -171 169 -183 311 -334 397 -424 53 -55 125 -131
160 -169 35 -38 98 -106 141 -150 42 -45 102 -108 133 -141 31 -33 114 -119
183 -190 70 -72 184 -189 254 -262 l128 -131 0 43 c0 24 -4 47 -10 50 -5 3
-10 15 -10 26 0 12 -7 19 -20 19 -13 0 -20 7 -20 19 0 31 -11 51 -27 51 -8 0
-32 13 -52 29 -20 15 -48 32 -63 37 -29 9 -148 120 -148 137 0 6 9 2 20 -8 17
-16 20 -16 20 -2 0 8 -6 18 -12 20 -7 3 2 3 21 0 l34 -6 -7 42 c-8 52 -36 105
-69 131 -22 17 -67 93 -67 113 0 4 8 7 18 8 9 0 4 5 -13 11 -46 16 -55 27 -56
67 -1 20 -3 28 -6 19 -2 -10 -9 -18 -15 -18 -5 0 -8 7 -4 15 4 12 -3 15 -29
15 -23 0 -34 4 -32 12 5 28 67 32 67 4 0 -6 4 -5 9 3 8 12 12 12 25 2 9 -8 16
-20 16 -27 0 -8 7 -14 16 -14 12 0 15 -7 12 -29 -4 -25 -2 -28 13 -18 14 9 15
14 7 25 -9 10 -7 17 5 29 9 9 20 13 24 9 4 -4 1 -11 -6 -15 -10 -6 -10 -10 -1
-16 6 -4 9 -17 6 -30 -5 -18 -1 -24 17 -29 14 -3 26 0 33 9 6 8 16 15 23 15 6
0 11 5 11 10 0 6 7 10 15 10 8 0 15 -4 15 -10 0 -5 6 -10 13 -10 20 0 50 -37
42 -50 -5 -8 -11 -8 -21 1 -19 16 -28 5 -20 -26 4 -17 13 -25 29 -25 12 0 34
-11 47 -23 14 -13 38 -27 53 -31 15 -3 27 -11 27 -16 0 -5 7 -7 16 -3 11 4 23
-2 35 -18 18 -23 19 3 19 1036 l0 1060 -133 135 c-168 172 -286 298 -492 525
-95 105 -194 211 -260 280 -22 23 -53 58 -69 79 -16 21 -73 84 -126 140 -81
84 -135 146 -229 262 -5 6 -12 21 -16 33 -4 13 -12 20 -20 17 -13 -5 -95 74
-95 91 0 5 20 43 45 85 25 43 45 82 45 88 0 7 -630 10 -2034 10 l-2034 0 -6
-24 c-7 -27 -32 -34 -99 -27 l-38 3 22 24 23 24 -232 0 -231 -1 -21 -26z m97
-15 c-3 -8 -6 -5 -6 6 -1 11 2 17 5 13 3 -3 4 -12 1 -19z m168 2 c3 -5 1 -10
-4 -10 -6 0 -11 5 -11 10 0 6 2 10 4 10 3 0 8 -4 11 -10z m65 0 c0 -5 -5 -10
-11 -10 -5 0 -7 5 -4 10 3 6 8 10 11 10 2 0 4 -4 4 -10z m90 -20 c8 -15 17
-19 31 -15 13 4 19 2 19 -9 0 -12 -8 -15 -32 -12 -18 3 -36 5 -39 5 -4 1 -9
12 -11 26 -6 31 16 34 32 5z m-310 -4 c0 -3 -4 -8 -10 -11 -5 -3 -10 -1 -10 4
0 6 5 11 10 11 6 0 10 -2 10 -4z m170 -56 c0 -5 -5 -10 -11 -10 -5 0 -7 5 -4
10 3 6 8 10 11 10 2 0 4 -4 4 -10z m37 -25 c0 -14 -11 -17 -87 -19 -38 -2 -25
18 14 21 21 1 41 4 44 8 11 11 29 5 29 -10z m68 -5 c3 -5 1 -10 -4 -10 -6 0
-11 5 -11 10 0 6 2 10 4 10 3 0 8 -4 11 -10z m270 0 c3 -5 -1 -10 -10 -10 -9
0 -13 5 -10 10 3 6 8 10 10 10 2 0 7 -4 10 -10z m-433 -483 c26 -1 50 -5 53
-9 4 -3 22 -2 41 3 21 6 47 6 69 0 23 -6 37 -6 41 1 4 6 44 7 113 2 58 -4 112
-7 119 -7 8 0 71 -57 142 -126 l129 -126 6 -90 c3 -49 10 -126 15 -170 5 -44
12 -145 15 -225 4 -80 8 -156 9 -170 2 -14 4 -49 5 -78 0 -29 5 -51 10 -48 4
3 7 31 6 63 -4 70 -8 520 -6 582 2 78 12 36 17 -70 2 -57 6 -141 9 -186 3 -49
1 -84 -5 -88 -6 -4 -7 -11 -3 -18 3 -6 8 -76 10 -156 4 -131 7 -148 25 -168
18 -19 20 -27 10 -48 -13 -29 -42 -32 -65 -7 -11 12 -17 50 -23 142 -7 116 -9
127 -33 150 -14 14 -89 93 -166 174 -536 569 -635 681 -613 689 7 2 15 0 18
-4 3 -5 27 -10 52 -12z m2608 -47 c0 -5 -4 -10 -10 -10 -5 0 -10 5 -10 10 0 6
5 10 10 10 6 0 10 -4 10 -10z m-1842 -42 c17 -17 15 -53 -3 -68 -24 -20 -65
-4 -65 24 0 43 42 70 68 44z m1982 -3 c0 -8 -4 -15 -10 -15 -5 0 -10 7 -10 15
0 8 5 15 10 15 6 0 10 -7 10 -15z m210 -45 c0 -5 -2 -10 -4 -10 -3 0 -8 5 -11
10 -3 6 -1 10 4 10 6 0 11 -4 11 -10z m-340 -42 c0 -5 -5 -6 -10 -3 -6 3 -14
-4 -19 -17 -8 -20 -10 -21 -16 -5 -9 21 11 48 31 40 8 -3 14 -9 14 -15z m-160
2 c0 -5 -2 -10 -4 -10 -3 0 -8 5 -11 10 -3 6 -1 10 4 10 6 0 11 -4 11 -10z
m470 -4 c0 -3 -4 -8 -10 -11 -5 -3 -10 -1 -10 4 0 6 5 11 10 11 6 0 10 -2 10
-4z m-3509 -36 c11 0 17 -4 14 -10 -3 -5 -15 -10 -26 -10 -13 0 -19 7 -18 23
0 12 3 16 6 10 2 -7 14 -13 24 -13z m1495 -270 c-9 -96 -21 -206 -26 -245 -6
-38 -15 -130 -21 -202 -7 -77 -16 -133 -22 -133 -7 0 -8 66 -3 198 8 235 16
325 29 333 5 4 13 51 18 105 4 55 11 115 15 134 6 34 6 35 16 10 6 -17 4 -83
-6 -200z m1566 -118 c4 -20 -7 -115 -17 -156 -6 -21 -5 -27 4 -22 6 4 11 16
11 26 0 11 9 34 20 52 24 40 25 26 4 -56 -15 -58 -34 -96 -34 -67 0 8 -6 11
-15 7 -9 -3 -15 0 -15 9 0 8 -7 15 -15 15 -11 0 -13 8 -8 32 4 23 3 29 -6 24
-9 -6 -10 0 -5 21 4 15 11 30 16 31 4 2 8 25 8 52 0 47 10 62 37 53 6 -3 13
-12 15 -21z m-3172 -23 c0 -18 -18 -9 -23 12 -4 16 -3 18 9 8 8 -6 14 -15 14
-20z m3338 4 c16 -41 17 -59 7 -153 l-9 -85 -7 95 c-4 52 -10 112 -14 133 -9
44 7 51 23 10z m-329 -66 c-1 -41 -3 -47 -9 -27 -7 23 -8 23 -9 -9 -1 -32 -2
-33 -19 -17 -12 10 -19 32 -20 57 -1 22 -4 45 -8 50 -12 20 8 27 36 12 28 -13
30 -18 29 -66z m-100 -17 c0 -33 -1 -34 -14 -16 -8 11 -15 38 -15 60 1 41 1
41 15 16 8 -14 14 -41 14 -60z m167 -105 c-4 -14 -10 -25 -15 -25 -4 0 -3 16
3 35 12 38 22 29 12 -10z m-89 -2 c-3 -10 -5 -4 -5 12 0 17 2 24 5 18 2 -7 2
-21 0 -30z m166 -48 c-7 -21 -13 -19 -13 6 0 11 4 18 10 14 5 -3 7 -12 3 -20z
m-325 -133 c2 -7 -3 -12 -12 -12 -9 0 -16 7 -16 16 0 17 22 14 28 -4z m820
-214 c-2 -6 -11 -12 -20 -14 -11 -1 -15 3 -11 12 6 17 36 19 31 2z m52 -132
c0 -3 -4 -8 -10 -11 -5 -3 -10 -1 -10 4 0 6 5 11 10 11 6 0 10 -2 10 -4z
m-2896 -62 c3 -8 2 -12 -4 -9 -6 3 -10 10 -10 16 0 14 7 11 14 -7z m251 -264
c10 -11 16 -20 13 -20 -3 0 -13 9 -23 20 -10 11 -16 20 -13 20 3 0 13 -9 23
-20z m2805 -139 c0 -4 -6 -15 -13 -26 -13 -16 -14 -15 -9 13 2 18 8 29 13 26
5 -3 9 -9 9 -13z m-165 -161 c3 -6 -4 -10 -17 -10 -18 0 -20 2 -8 10 19 12 18
12 25 0z m1685 -76 c0 -14 -3 -14 -15 -4 -8 7 -15 14 -15 16 0 2 7 4 15 4 8 0
15 -7 15 -16z m-1676 -19 c-19 -29 -22 -30 -143 -46 -74 -11 -95 -11 -99 -1
-2 7 -10 12 -18 12 -29 0 -13 19 29 34 55 20 76 23 170 25 l77 1 -16 -25z m69
18 c-7 -2 -19 -2 -25 0 -7 3 -2 5 12 5 14 0 19 -2 13 -5z m1600 -48 c4 -8 2
-17 -3 -20 -6 -4 -10 3 -10 14 0 25 6 27 13 6z m-23 -10 c0 -8 -4 -15 -10 -15
-5 0 -10 7 -10 15 0 8 5 15 10 15 6 0 10 -7 10 -15z m57 -32 c-3 -3 -10 -2
-16 2 -7 4 -7 10 2 20 10 11 13 11 15 -2 2 -8 1 -17 -1 -20z m-1797 -13 c8 -5
11 -10 5 -10 -5 -1 -34 -2 -63 -4 -43 -3 -50 -1 -41 10 13 16 77 18 99 4z
m510 -10 c0 -5 -4 -10 -10 -10 -5 0 -10 5 -10 10 0 6 5 10 10 10 6 0 10 -4 10
-10z m1320 -5 c8 -9 8 -15 2 -15 -18 0 -42 12 -42 21 0 14 26 10 40 -6z m-60
-15 c0 -5 -4 -10 -10 -10 -5 0 -10 5 -10 10 0 6 5 10 10 10 6 0 10 -4 10 -10z
m66 -55 c-2 -5 -11 -9 -20 -9 -9 1 -16 -1 -16 -6 0 -4 -11 -12 -25 -18 -21
-10 -24 -17 -20 -39 6 -26 5 -27 -9 -9 -16 20 -7 46 24 74 11 10 12 14 2 18
-6 3 -10 9 -7 13 7 12 76 -12 71 -24z m-1774 -16 c16 -8 19 -8 13 1 -6 9 -2 9
14 0 22 -11 20 -30 -4 -30 -7 0 -15 -4 -17 -9 -5 -14 -128 -37 -136 -25 -8 10
-93 36 -131 39 -14 1 -27 8 -29 15 -4 10 8 12 52 7 32 -3 56 -2 56 4 0 13 157
11 182 -2z m-352 -31 c0 -18 7 -45 14 -60 8 -16 13 -28 10 -28 -11 0 -34 29
-34 44 0 8 -4 17 -9 20 -10 7 -2 56 10 56 5 0 9 -15 9 -32z m800 -13 c0 -13 5
-27 10 -30 6 -3 10 -17 10 -30 0 -13 5 -27 10 -30 15 -9 12 -34 -7 -53 -16
-16 -16 -16 -10 0 3 10 0 24 -8 32 -8 8 -15 21 -15 30 0 8 -4 17 -9 20 -5 3
-11 19 -13 35 -2 17 -1 28 4 25 4 -3 8 4 8 16 0 12 5 18 10 15 6 -3 10 -17 10
-30z m1320 5 c0 -20 -25 -38 -36 -27 -8 7 15 47 26 47 6 0 10 -9 10 -20z
m-2003 -36 c-3 -3 -12 -4 -19 -1 -8 3 -5 6 6 6 11 1 17 -2 13 -5z m2003 -30
c0 -14 -3 -14 -15 -4 -8 7 -15 14 -15 16 0 2 7 4 15 4 8 0 15 -7 15 -16z
m-2130 -113 c0 -6 -4 -13 -10 -16 -5 -3 -10 1 -10 9 0 9 5 16 10 16 6 0 10 -4
10 -9z m840 -1 c-19 -13 -30 -13 -30 0 0 6 10 10 23 10 18 0 19 -2 7 -10z
m-38 -52 c-5 -7 -8 -28 -6 -45 2 -20 -1 -33 -7 -33 -6 0 -9 -6 -6 -14 8 -20
-17 -53 -28 -37 -13 21 5 120 23 131 24 13 36 12 24 -2z m1284 -35 c-2 -24 52
-43 64 -23 15 24 11 2 -5 -30 -16 -31 -32 -42 -21 -15 3 10 -5 20 -24 30 -33
17 -44 31 -35 45 10 16 23 12 21 -7z m50 2 c-26 -19 -42 -19 -26 0 7 8 20 15
29 15 13 -1 13 -3 -3 -15z m-1548 -44 c11 -6 10 -9 -5 -13 -10 -3 -24 -3 -32
0 -11 4 -11 6 0 13 17 11 21 11 37 0z m1599 -17 c-3 -3 -12 -4 -19 -1 -8 3 -5
6 6 6 11 1 17 -2 13 -5z m-11 -38 c0 -15 -5 -21 -10 -16 -5 5 -6 16 -3 24 9
23 15 19 13 -8z m-2096 -37 c0 -12 -22 -11 -54 1 -32 12 -33 22 -3 36 18 9 25
7 40 -9 9 -10 17 -23 17 -28z m476 -106 c-10 -10 -19 5 -10 18 6 11 8 11 12 0
2 -7 1 -15 -2 -18z m84 -48 c0 -8 -4 -15 -10 -15 -5 0 -10 7 -10 15 0 8 5 15
10 15 6 0 10 -7 10 -15z m1807 -69 c12 -13 19 -27 16 -30 -4 -3 2 -6 13 -6 20
0 84 -62 84 -82 0 -7 9 -22 21 -34 11 -12 21 -31 22 -43 1 -13 8 -21 20 -21
10 0 21 -9 24 -20 3 -10 13 -22 22 -25 12 -3 18 -16 18 -34 0 -24 -3 -27 -14
-16 -7 8 -13 18 -13 24 0 6 -7 11 -16 11 -8 0 -12 5 -9 10 3 6 2 10 -4 10 -14
0 -89 76 -96 99 -3 11 -14 22 -23 26 -18 5 -73 56 -130 119 l-33 36 39 0 c28
0 44 -6 59 -24z m-2081 -34 c1 -7 0 -8 -2 -3 -3 6 -12 7 -21 4 -11 -4 -14 -3
-9 6 9 14 29 10 32 -7z m2650 -97 c3 -13 14 -25 25 -28 23 -6 25 -23 4 -31 -8
-3 -15 -1 -15 5 0 6 -4 8 -9 4 -11 -6 -26 33 -17 42 3 4 -2 15 -11 25 -16 18
-16 18 0 12 10 -3 20 -17 23 -29z m-2222 -107 c42 -46 76 -88 76 -94 0 -7 11
-19 25 -28 14 -9 25 -23 25 -30 0 -8 7 -16 15 -20 8 -3 15 -15 15 -26 0 -11 7
-20 15 -20 8 0 15 -4 15 -10 0 -5 -4 -10 -10 -10 -11 0 -40 -52 -40 -71 0 -8
9 -5 23 7 62 56 65 55 124 -4 29 -30 53 -56 53 -58 0 -13 -35 -41 -46 -37 -7
2 -18 -6 -25 -19 -6 -13 -16 -26 -22 -29 -6 -4 -6 -18 -2 -35 6 -21 9 -24 12
-11 5 21 23 23 23 2 0 -9 7 -18 16 -22 8 -3 20 -17 25 -30 7 -20 12 -22 29
-13 11 6 25 8 31 4 6 -4 15 -1 19 7 7 10 12 10 23 1 7 -7 17 -8 21 -4 18 18
47 4 122 -60 55 -47 274 -271 274 -281 0 -9 -24 -4 -80 17 -19 7 -53 19 -75
26 -22 7 -53 18 -70 25 -16 7 -68 27 -115 45 -47 17 -98 37 -115 45 -16 7 -57
23 -90 36 -33 13 -64 27 -70 31 -5 4 -15 8 -23 8 -7 0 -51 16 -97 36 -56 24
-94 48 -116 72 -17 20 -79 85 -137 143 l-104 107 36 61 c20 34 36 68 36 75 0
6 5 17 12 24 12 12 48 116 48 140 0 21 28 82 38 82 5 0 44 -37 86 -82z m2310
18 c-3 -7 2 -16 10 -19 19 -7 21 -27 4 -27 -6 0 -9 3 -5 6 3 3 -6 17 -21 31
-15 13 -21 22 -14 18 6 -3 12 -1 12 5 0 6 4 9 10 5 5 -3 7 -12 4 -19z m-374
-96 c15 -21 19 -34 12 -46 -9 -15 -10 -15 -16 4 -4 12 -12 22 -17 22 -5 0 -9
11 -9 25 0 32 4 31 30 -5z m63 -84 c11 -3 18 -8 14 -12 -13 -13 -56 17 -49 35
6 15 7 15 10 0 2 -10 13 -19 25 -23z m-3333 -1096 c14 -22 29 -40 33 -40 5 0
5 -4 2 -10 -3 -5 -2 -10 4 -10 5 0 13 -10 16 -22 4 -13 13 -38 22 -56 8 -19
12 -36 10 -39 -10 -9 -25 7 -32 34 -3 15 -15 39 -26 55 -11 15 -18 32 -15 37
3 5 -5 11 -17 15 -26 6 -53 48 -43 65 12 18 21 13 46 -29z m857 -2 c-3 -7 -5
-2 -5 12 0 14 2 19 5 13 2 -7 2 -19 0 -25z m-717 -274 c0 -8 4 -14 10 -14 5 0
7 7 4 15 -4 8 -4 15 -1 15 11 0 56 -50 62 -69 8 -27 35 -34 56 -15 24 22 24 7
0 -33 -11 -17 -23 -59 -27 -93 -4 -33 -11 -63 -17 -67 -7 -4 -8 8 -3 35 5 34
3 42 -9 42 -9 0 -13 5 -10 10 4 6 11 8 16 5 5 -4 9 2 9 12 0 10 3 29 6 43 l5
25 -17 -22 c-17 -24 -34 -30 -34 -14 0 5 7 17 16 25 14 15 14 16 0 16 -9 0
-16 -4 -16 -8 0 -11 -59 -32 -75 -25 -21 8 -27 38 -16 79 11 41 6 58 -15 50
-8 -3 -14 -3 -14 0 0 2 10 8 23 13 24 10 47 -3 47 -25z m2160 -64 c8 -5 11
-12 8 -16 -4 -3 -14 1 -23 10 -18 17 -9 21 15 6z m-11 -107 c1 -25 -4 -43 -11
-45 -8 -3 -14 -27 -15 -64 -1 -32 -4 -66 -6 -74 -6 -17 -18 -120 -19 -165 0
-16 -3 -22 -5 -13 -4 14 -13 9 -50 -27 -44 -43 -47 -45 -63 -28 -9 10 -17 23
-17 28 0 6 -1 24 -2 40 l-3 30 -13 -30 -13 -30 -4 30 c-1 17 -1 47 1 68 2 31
6 37 21 32 9 -3 23 1 30 10 11 13 10 19 -6 36 -14 16 -19 38 -20 97 -2 79 6
115 16 73 l5 -24 32 27 c18 15 37 25 43 21 6 -3 7 0 4 9 -3 9 -10 16 -15 16
-5 0 -9 9 -9 19 0 25 41 24 48 -1 5 -20 22 -25 22 -7 0 6 7 9 15 5 11 -4 15 3
16 27 1 30 1 31 9 7 4 -14 8 -44 9 -67z m-2277 -67 c-2 -9 2 -16 8 -16 5 0 10
-6 10 -14 0 -9 -7 -12 -21 -9 -24 7 -34 26 -25 49 8 20 32 12 28 -10z m477
-13 c-1 -38 -1 -38 -9 -9 -8 27 -6 46 6 46 2 0 4 -17 3 -37z m-419 -39 c0 -9
-5 -14 -12 -12 -18 6 -21 28 -4 28 9 0 16 -7 16 -16z m437 -6 c-3 -8 -6 -5 -6
6 -1 11 2 17 5 13 3 -3 4 -12 1 -19z m-275 -40 c-9 -9 -12 -7 -12 12 0 19 3
21 12 12 9 -9 9 -15 0 -24z m2376 -28 c-7 -10 -16 -16 -20 -14 -4 3 -8 0 -8
-5 0 -6 -5 -11 -10 -11 -6 0 -5 8 2 19 7 11 16 17 20 15 4 -3 8 2 8 11 0 9 4
13 10 10 6 -4 5 -13 -2 -25z m-1947 -12 c0 -2 2 -32 4 -68 1 -36 1 -50 -2 -32
-2 17 -8 32 -13 32 -4 0 -8 16 -8 35 0 19 4 35 9 35 5 0 9 -1 10 -2z m69 -120
c4 -64 2 -84 -7 -81 -17 7 -25 55 -17 98 4 26 3 40 -6 45 -15 9 -3 33 13 27 7
-2 14 -37 17 -89z m-600 42 c0 -10 -6 -20 -13 -23 -10 -4 -12 3 -9 24 5 31 22
30 22 -1z m200 -50 c0 -10 -4 -22 -10 -25 -6 -4 -10 7 -10 25 0 18 4 29 10 25
6 -3 10 -15 10 -25z m440 1 c0 -6 -4 -13 -10 -16 -5 -3 -10 1 -10 9 0 9 5 16
10 16 6 0 10 -4 10 -9z m440 -96 c0 -8 -4 -15 -10 -15 -5 0 -10 7 -10 15 0 8
5 15 10 15 6 0 10 -7 10 -15z m94 -38 c4 -19 3 -26 -4 -22 -5 3 -10 18 -10 32
0 32 5 28 14 -10z m856 -7 c0 -5 -5 -10 -11 -10 -5 0 -7 5 -4 10 3 6 8 10 11
10 2 0 4 -4 4 -10z m-795 -10 c3 -5 -1 -10 -9 -10 -9 0 -16 5 -16 10 0 6 4 10
9 10 6 0 13 -4 16 -10z"/>
<path d="M4365 1900 c-3 -5 1 -10 9 -10 9 0 16 5 16 10 0 6 -4 10 -9 10 -6 0
-13 -4 -16 -10z"/>
<path d="M4510 1630 c-9 -6 -10 -10 -3 -10 6 0 15 5 18 10 8 12 4 12 -15 0z"/>
<path d="M5075 500 c3 -5 8 -10 11 -10 2 0 4 5 4 10 0 6 -5 10 -11 10 -5 0 -7
-4 -4 -10z"/>
<path d="M5050 445 c0 -8 4 -15 10 -15 5 0 7 7 4 15 -4 8 -8 15 -10 15 -2 0
-4 -7 -4 -15z"/>
<path d="M4980 400 c0 -5 5 -10 10 -10 6 0 10 5 10 10 0 6 -4 10 -10 10 -5 0
-10 -4 -10 -10z"/>
<path d="M4950 339 c0 -5 5 -7 10 -4 6 3 10 8 10 11 0 2 -4 4 -10 4 -5 0 -10
-5 -10 -11z"/>
<path d="M4925 210 c4 -6 11 -8 16 -5 14 9 11 15 -7 15 -8 0 -12 -5 -9 -10z"/>
<path d="M4950 180 c0 -5 7 -10 15 -10 9 0 15 -9 15 -22 0 -20 1 -21 20 -3 31
28 25 45 -15 45 -19 0 -35 -4 -35 -10z"/>
<path d="M5596 5928 c39 -40 86 -90 105 -112 19 -21 44 -49 56 -62 12 -13 29
-37 39 -53 10 -16 27 -35 38 -41 12 -7 38 -33 60 -58 21 -26 79 -92 130 -147
116 -127 131 -143 191 -210 128 -142 325 -338 325 -324 0 9 -17 32 -37 52 -21
20 -48 49 -61 64 -13 16 -74 82 -137 148 -62 66 -129 140 -150 165 -40 49
-162 184 -265 291 -36 37 -94 100 -130 140 -130 145 -204 219 -219 219 -9 0
15 -31 55 -72z"/>
<path d="M6197 5985 c5 -8 54 -63 109 -122 56 -60 129 -141 163 -180 35 -40
65 -73 67 -73 2 0 4 16 4 35 0 19 -5 35 -11 35 -14 0 -88 81 -89 98 0 6 -4 12
-9 12 -11 0 -39 28 -131 128 -41 46 -82 82 -93 82 -13 0 -16 -4 -10 -15z"/>
<path d="M460 5890 c0 -5 5 -10 10 -10 6 0 10 5 10 10 0 6 -4 10 -10 10 -5 0
-10 -4 -10 -10z"/>
<path d="M500 5889 c0 -5 5 -7 10 -4 6 3 10 8 10 11 0 2 -4 4 -10 4 -5 0 -10
-5 -10 -11z"/>
<path d="M5492 5854 c-27 -19 -29 -34 -2 -27 11 3 20 9 20 14 0 5 5 9 10 9 21
0 -10 -39 -32 -42 -35 -5 -33 -72 3 -113 22 -25 34 -29 69 -28 55 3 87 32 96
88 6 46 -15 95 -42 95 -8 0 -14 5 -14 10 0 6 -5 10 -11 10 -6 0 -7 -5 -2 -12
4 -7 8 -31 8 -53 l0 -40 -54 0 c-38 0 -56 4 -59 14 -3 10 0 12 12 8 12 -5 20
3 30 28 8 19 20 35 25 35 6 0 11 5 11 10 0 15 -43 12 -68 -6z"/>
<path d="M3510 5150 c0 -5 7 -10 16 -10 8 0 12 5 9 10 -3 6 -10 10 -16 10 -5
0 -9 -4 -9 -10z"/>
<path d="M18 5143 c6 -2 18 -2 25 0 6 3 1 5 -13 5 -14 0 -19 -2 -12 -5z"/>
<path d="M3720 5110 c0 -5 5 -10 11 -10 5 0 7 5 4 10 -3 6 -8 10 -11 10 -2 0
-4 -4 -4 -10z"/>
<path d="M2765 4813 c-51 -7 -59 -11 -46 -27 10 -11 7 -16 -11 -22 -13 -4 -32
-7 -44 -5 -23 2 -57 -30 -38 -36 6 -2 9 -15 6 -29 -5 -29 15 -49 34 -33 8 6
14 4 18 -8 5 -11 1 -22 -9 -29 -14 -10 -13 -12 6 -17 11 -3 18 -10 14 -16 -3
-7 2 -11 15 -11 11 0 23 -7 27 -15 8 -22 -4 -30 -22 -15 -24 20 -28 6 -7 -31
19 -32 37 -99 27 -99 -2 0 -13 10 -25 22 -14 15 -34 23 -65 24 -43 3 -61 -10
-30 -22 8 -4 15 -10 15 -16 0 -5 -5 -6 -11 -2 -7 4 -9 -2 -7 -17 1 -13 13 -29
26 -35 13 -6 23 -15 22 -19 -5 -25 80 -34 99 -11 7 8 14 54 16 102 7 134 26
297 36 317 10 19 3 58 -9 56 -4 -1 -20 -4 -37 -6z m-17 -80 c14 -31 15 -43 4
-43 -4 0 -13 14 -20 30 -8 17 -18 27 -24 24 -7 -4 -8 -2 -4 4 12 20 30 13 44
-15z"/>
<path d="M4030 4720 c0 -5 5 -10 11 -10 5 0 7 5 4 10 -3 6 -8 10 -11 10 -2 0
-4 -4 -4 -10z"/>
<path d="M2580 4700 c0 -5 9 -10 20 -10 11 0 20 5 20 10 0 6 -9 10 -20 10 -11
0 -20 -4 -20 -10z"/>
<path d="M4152 4655 c-1 -29 2 -35 18 -35 25 0 27 32 4 54 -21 21 -21 21 -22
-19z"/>
<path d="M50 4640 c0 -5 -7 -10 -15 -10 -8 0 -15 -4 -15 -10 0 -5 7 -10 15
-10 8 0 15 -4 15 -9 0 -5 6 -11 13 -14 9 -3 12 5 9 29 -2 19 -8 34 -13 34 -5
0 -9 -4 -9 -10z"/>
<path d="M150 4611 c0 -10 19 -25 25 -20 1 2 -3 10 -11 17 -8 7 -14 8 -14 3z"/>
<path d="M2483 4563 c-22 -8 -14 -21 17 -25 38 -6 62 8 40 22 -16 10 -37 12
-57 3z"/>
<path d="M6470 4518 c0 -52 13 -65 39 -39 30 30 24 65 -11 69 -26 3 -28 0 -28
-30z m35 2 c3 -5 1 -10 -4 -10 -6 0 -11 5 -11 10 0 6 2 10 4 10 3 0 8 -4 11
-10z"/>
<path d="M2797 4463 c-12 -20 -18 -101 -8 -107 6 -4 11 -2 11 4 0 7 8 9 19 5
28 -8 33 19 13 65 -16 39 -26 48 -35 33z"/>
<path d="M286 4451 c-4 -7 -5 -15 -2 -18 9 -9 19 4 14 18 -4 11 -6 11 -12 0z"/>
<path d="M2303 4436 c-34 -29 -27 -40 15 -25 21 7 32 18 32 30 0 25 -13 24
-47 -5z"/>
<path d="M2435 4440 c3 -5 10 -10 16 -10 5 0 9 5 9 10 0 6 -7 10 -16 10 -8 0
-12 -4 -9 -10z"/>
<path d="M2510 4425 c0 -8 7 -15 16 -15 14 0 14 3 4 15 -7 8 -14 15 -16 15 -2
0 -4 -7 -4 -15z"/>
<path d="M2150 4365 c0 -8 7 -15 16 -15 14 0 14 3 4 15 -7 8 -14 15 -16 15 -2
0 -4 -7 -4 -15z"/>
<path d="M2280 4373 c-8 -3 -23 -14 -34 -25 -11 -10 -23 -18 -28 -18 -4 0 -8
-4 -8 -9 0 -12 87 -2 138 16 58 22 56 43 -5 42 -27 0 -55 -3 -63 -6z"/>
<path d="M2571 4337 c-8 -10 -34 -13 -106 -10 -67 3 -95 1 -95 -7 0 -8 15 -10
50 -5 28 4 50 3 50 -2 0 -10 -54 -24 -165 -44 -38 -7 -83 -22 -100 -33 -16
-11 -31 -20 -32 -21 -2 -1 -6 -16 -9 -33 -6 -27 -4 -32 13 -32 11 0 31 8 44
19 13 10 39 26 57 35 28 14 31 20 21 32 -6 8 -10 16 -8 18 5 5 188 20 204 17
72 -12 106 -12 120 3 17 17 10 41 -18 64 -11 10 -17 9 -26 -1z"/>
<path d="M490 4279 c0 -5 5 -7 10 -4 6 3 10 8 10 11 0 2 -4 4 -10 4 -5 0 -10
-5 -10 -11z"/>
<path d="M338 4273 c7 -3 16 -2 19 1 4 3 -2 6 -13 5 -11 0 -14 -3 -6 -6z"/>
<path d="M425 4270 c3 -5 8 -10 11 -10 2 0 4 5 4 10 0 6 -5 10 -11 10 -5 0 -7
-4 -4 -10z"/>
<path d="M2453 4243 c-23 -3 -33 -10 -33 -22 0 -9 -17 -35 -37 -58 -35 -38
-53 -93 -32 -93 5 0 9 -9 9 -20 0 -32 22 -22 63 28 56 70 127 147 127 138 0
-5 7 -3 15 4 31 26 -16 35 -112 23z"/>
<path d="M505 4230 c3 -5 8 -10 11 -10 2 0 4 5 4 10 0 6 -5 10 -11 10 -5 0 -7
-4 -4 -10z"/>
<path d="M2150 4094 c0 -17 22 -14 28 4 2 7 -3 12 -12 12 -9 0 -16 -7 -16 -16z"/>
<path d="M2330 4030 c0 -5 5 -10 11 -10 5 0 7 5 4 10 -3 6 -8 10 -11 10 -2 0
-4 -4 -4 -10z"/>
<path d="M986 3815 c4 -9 16 -21 28 -27 19 -10 19 -9 -3 16 -28 30 -33 32 -25
11z"/>
<path d="M4537 3719 c24 -22 47 -48 52 -57 5 -9 12 -14 16 -11 7 7 -87 109
-101 109 -5 0 10 -18 33 -41z"/>
<path d="M4650 3605 c0 -15 110 -128 118 -121 3 4 -22 35 -56 69 -34 34 -62
57 -62 52z"/>
<path d="M5204 3554 c3 -8 2 -12 -3 -9 -6 3 -14 -2 -19 -11 -7 -12 -4 -23 12
-41 l20 -24 13 37 c10 27 10 40 2 50 -16 19 -33 18 -25 -2z"/>
<path d="M265 3430 c10 -11 20 -20 23 -20 3 0 -3 9 -13 20 -10 11 -20 20 -23
20 -3 0 3 -9 13 -20z"/>
<path d="M5220 3440 c0 -5 5 -10 10 -10 6 0 10 5 10 10 0 6 -4 10 -10 10 -5 0
-10 -4 -10 -10z"/>
<path d="M2820 3420 c0 -5 7 -10 16 -10 8 0 12 5 9 10 -3 6 -10 10 -16 10 -5
0 -9 -4 -9 -10z"/>
<path d="M4820 3420 c0 -5 5 -10 11 -10 5 0 7 5 4 10 -3 6 -8 10 -11 10 -2 0
-4 -4 -4 -10z"/>
<path d="M4905 3420 c4 -6 11 -8 16 -5 14 9 11 15 -7 15 -8 0 -12 -5 -9 -10z"/>
<path d="M4947 3417 c-11 -29 -9 -43 4 -30 6 6 9 19 7 29 -3 18 -4 18 -11 1z"/>
<path d="M4973 3395 c-16 -17 -17 -35 -3 -35 6 0 10 7 10 16 0 12 6 15 21 11
16 -4 18 -3 8 9 -14 17 -21 17 -36 -1z"/>
<path d="M350 3340 c0 -5 5 -10 11 -10 5 0 7 5 4 10 -3 6 -8 10 -11 10 -2 0
-4 -4 -4 -10z"/>
<path d="M5060 3320 c-7 -14 -7 -20 0 -20 6 0 15 -11 19 -24 10 -24 51 -43 51
-23 -1 17 -25 47 -38 47 -6 0 -9 6 -6 14 9 23 -14 28 -26 6z"/>
<path d="M5021 3314 c0 -11 3 -14 6 -6 3 7 2 16 -1 19 -3 4 -6 -2 -5 -13z"/>
<path d="M390 3303 c1 -14 168 -188 175 -182 3 4 -7 20 -22 36 -15 16 -54 57
-86 91 -58 61 -67 69 -67 55z"/>
<path d="M5328 3290 c-4 -14 -8 -38 -8 -55 1 -25 2 -27 11 -12 6 9 9 34 7 55
-3 33 -4 35 -10 12z"/>
<path d="M2840 3240 c-13 -8 -12 -10 5 -11 11 -1 23 -1 28 0 4 0 7 -6 7 -14 0
-11 -5 -12 -26 -5 -29 11 -74 3 -71 -12 1 -6 -4 -13 -12 -16 -10 -3 -12 0 -7
13 5 15 2 16 -21 9 -16 -4 -57 -8 -92 -9 -44 0 -66 -5 -69 -14 -3 -10 12 -12
67 -9 40 2 72 -1 74 -7 5 -15 145 -19 163 -4 13 11 17 10 25 -4 10 -18 49 -24
49 -7 0 5 -8 14 -17 19 -10 6 -12 11 -5 11 27 0 9 30 -31 49 -50 24 -47 24
-67 11z m75 -50 c3 -5 1 -10 -4 -10 -6 0 -11 5 -11 10 0 6 2 10 4 10 3 0 8 -4
11 -10z"/>
<path d="M5190 3231 c0 -5 -20 -6 -45 -3 -53 6 -57 -1 -13 -22 41 -21 55 -20
70 4 14 22 34 26 40 8 3 -7 7 -6 11 5 5 14 0 17 -28 17 -19 0 -35 -4 -35 -9z"/>
<path d="M5290 3160 c0 -5 5 -10 11 -10 5 0 7 5 4 10 -3 6 -8 10 -11 10 -2 0
-4 -4 -4 -10z"/>
<path d="M2146 3143 c-3 -3 -6 -29 -5 -57 l1 -51 13 30 c8 17 14 40 15 52 0
23 -13 37 -24 26z"/>
<path d="M0 2967 c0 -121 3 -177 11 -177 6 0 13 9 16 19 6 25 34 36 45 19 5
-9 8 -4 8 14 0 41 16 75 38 80 27 7 36 0 62 -50 12 -23 34 -52 49 -63 17 -14
22 -23 14 -26 -7 -3 -13 -11 -13 -19 0 -10 14 -14 55 -14 44 0 53 -3 49 -15
-8 -19 3 -19 22 -1 12 13 11 18 -11 40 -14 14 -35 26 -46 26 -16 0 -19 4 -14
20 5 16 -19 47 -121 153 -70 72 -136 141 -146 152 -17 19 -18 15 -18 -158z"/>
<path d="M5341 3131 c0 -8 -8 -22 -16 -31 -16 -17 -11 -50 7 -50 6 0 7 7 4 16
-4 9 -1 22 5 30 6 7 9 21 6 31 -3 11 -5 12 -6 4z"/>
<path d="M570 3105 c0 -2 42 -47 93 -98 50 -52 164 -170 252 -262 88 -93 192
-201 230 -240 39 -39 153 -158 255 -264 102 -107 246 -257 321 -335 75 -78
166 -172 202 -211 50 -53 67 -66 72 -54 4 11 -31 54 -117 141 -298 304 -667
685 -689 711 -13 15 -57 61 -98 103 -67 69 -72 76 -56 88 10 7 15 18 11 24 -3
6 2 13 13 17 27 8 45 115 21 130 -5 3 -10 16 -10 27 0 26 -51 107 -96 152 -20
20 -32 40 -28 49 7 18 -25 32 -40 17 -8 -8 -6 -15 7 -24 13 -10 17 -28 17 -79
0 -45 4 -66 13 -70 8 -3 19 -36 26 -81 7 -42 16 -76 20 -76 3 0 12 -13 17 -29
l11 -29 -39 22 c-22 11 -52 33 -67 47 -14 15 -93 94 -175 178 -133 134 -166
163 -166 146z m445 -165 c3 -5 -1 -10 -10 -10 -9 0 -13 5 -10 10 3 6 8 10 10
10 2 0 7 -4 10 -10z m35 -162 c0 -13 -23 -5 -28 10 -2 7 2 10 12 6 9 -3 16
-11 16 -16z"/>
<path d="M5305 2980 c-8 -13 -1 -24 14 -19 6 3 7 10 2 18 -6 10 -10 10 -16 1z"/>
<path d="M3916 2892 l-19 -27 24 22 c12 12 21 24 18 27 -2 2 -13 -8 -23 -22z"/>
<path d="M2 2710 c0 -14 2 -19 5 -12 2 6 2 18 0 25 -3 6 -5 1 -5 -13z"/>
<path d="M365 2720 c-3 -6 1 -7 9 -4 18 7 21 14 7 14 -6 0 -13 -4 -16 -10z"/>
<path d="M427 2670 c3 -12 14 -25 24 -30 12 -7 16 -16 12 -28 -6 -16 -5 -16
11 1 18 17 18 19 0 38 -10 12 -26 25 -35 30 -14 7 -16 5 -12 -11z"/>
<path d="M355 2660 c-3 -5 -1 -10 4 -10 6 0 11 5 11 10 0 6 -2 10 -4 10 -3 0
-8 -4 -11 -10z"/>
<path d="M3090 2654 c-24 -14 -24 -14 15 -8 47 7 71 24 35 24 -14 -1 -36 -7
-50 -16z"/>
<path d="M1990 2601 c0 -6 5 -13 10 -16 6 -4 9 -14 8 -23 -2 -10 8 -19 30 -25
17 -6 32 -15 32 -21 0 -6 12 -19 25 -29 24 -17 25 -17 25 1 0 12 -15 27 -43
42 -27 15 -48 34 -55 52 -10 26 -32 39 -32 19z"/>
<path d="M2828 2388 c-35 -12 -36 -36 -3 -44 13 -3 29 -12 36 -20 21 -26 39
-16 39 21 0 19 5 35 10 35 6 0 10 5 10 10 0 13 -56 12 -92 -2z"/>
<path d="M3910 2385 c0 -8 7 -15 16 -15 14 0 14 3 4 15 -7 8 -14 15 -16 15 -2
0 -4 -7 -4 -15z"/>
<path d="M3910 2339 c0 -5 5 -7 10 -4 6 3 10 8 10 11 0 2 -4 4 -10 4 -5 0 -10
-5 -10 -11z"/>
<path d="M760 2335 c0 -10 53 -65 62 -65 12 0 -32 57 -49 64 -7 3 -13 3 -13 1z"/>
<path d="M2174 2309 c-3 -5 -2 -14 1 -20 4 -6 -1 -13 -11 -15 -15 -4 -19 -14
-18 -47 1 -23 5 -53 9 -67 5 -19 4 -22 -4 -10 -17 24 -14 -6 5 -41 11 -22 21
-30 34 -26 11 3 24 -1 31 -9 20 -24 138 -16 122 9 -4 6 3 8 21 3 25 -6 26 -5
26 39 0 25 -4 45 -9 45 -5 0 -11 14 -14 30 -4 18 -13 30 -22 30 -12 0 -15 6
-10 20 6 19 -2 25 -32 21 -7 -1 -13 3 -13 9 0 22 -104 48 -116 29z"/>
<path d="M3110 2250 c0 -5 5 -10 10 -10 6 0 10 5 10 10 0 6 -4 10 -10 10 -5 0
-10 -4 -10 -10z"/>
<path d="M48 2178 c17 -17 15 -48 -3 -48 -8 0 -15 -9 -15 -19 0 -25 16 -36 24
-15 3 8 10 13 15 9 5 -3 12 -1 15 4 8 12 -25 81 -38 81 -6 0 -5 -5 2 -12z"/>
<path d="M0 2050 c0 -8 24 -37 52 -65 50 -49 51 -49 23 -10 -46 62 -75 92 -75
75z"/>
<path d="M1057 2023 c-4 -3 -7 -11 -7 -17 0 -6 5 -5 12 2 6 6 9 14 7 17 -3 3
-9 2 -12 -2z"/>
<path d="M1080 2001 c0 -6 5 -11 10 -11 6 0 10 -5 10 -12 0 -15 118 -128 134
-128 6 0 -12 22 -39 48 -28 26 -57 56 -65 67 -22 29 -50 50 -50 36z"/>
<path d="M117 1919 c7 -7 15 -10 18 -7 3 3 -2 9 -12 12 -14 6 -15 5 -6 -5z"/>
<path d="M155 1880 c10 -11 20 -20 23 -20 3 0 -3 9 -13 20 -10 11 -20 20 -23
20 -3 0 3 -9 13 -20z"/>
<path d="M780 1869 c-10 -6 -11 -9 -2 -9 6 0 12 -9 12 -20 0 -11 5 -20 10 -20
12 0 14 47 2 54 -4 2 -14 1 -22 -5z"/>
<path d="M1254 1815 c6 -13 13 -23 16 -22 10 3 118 -109 121 -126 3 -12 8 -14
19 -7 12 8 1 24 -60 84 -41 41 -82 79 -91 84 -14 9 -15 8 -5 -13z"/>
<path d="M2600 1820 c0 -5 5 -10 11 -10 5 0 7 5 4 10 -3 6 -8 10 -11 10 -2 0
-4 -4 -4 -10z"/>
<path d="M281 1752 c19 -20 48 -48 64 -61 17 -14 3 3 -30 37 -66 69 -86 83
-34 24z"/>
<path d="M5036 1754 c-3 -9 -6 -23 -6 -32 1 -14 5 -12 20 7 11 13 20 27 20 32
0 15 -28 10 -34 -7z"/>
<path d="M923 1704 c-24 -33 -21 -44 17 -61 23 -10 23 -12 6 -19 -11 -4 -27
-2 -37 4 -24 15 -39 15 -39 0 0 -7 17 -22 39 -34 37 -20 39 -20 50 -2 16 26
35 22 68 -12 23 -24 36 -30 73 -31 25 0 39 -3 33 -6 -24 -9 -13 -31 36 -75 26
-24 51 -53 55 -65 4 -14 18 -23 42 -28 20 -3 48 -18 63 -33 20 -20 34 -25 61
-23 19 2 40 7 45 11 6 5 25 12 44 17 19 5 37 15 39 22 3 8 0 11 -7 7 -7 -5 -9
-1 -5 8 5 12 -4 17 -36 22 -34 6 -44 12 -52 35 -12 35 -48 41 -48 8 0 -11 -4
-17 -10 -14 -5 3 -10 1 -10 -5 0 -7 -6 -8 -18 -1 -10 6 -29 7 -40 4 -18 -4
-25 1 -37 30 -8 19 -20 37 -27 40 -11 3 -11 9 0 26 11 18 10 21 -7 21 -12 0
-20 9 -23 24 -4 18 -1 23 9 19 11 -4 14 1 11 22 -3 32 -28 47 -28 18 0 -11 -5
-24 -11 -30 -8 -8 -7 -17 2 -32 11 -17 11 -23 0 -33 -11 -11 -15 -10 -25 5
-30 49 -31 50 -56 37 -20 -11 -25 -9 -45 16 -22 28 -15 48 8 25 14 -14 27 -14
27 -1 0 10 -113 90 -129 90 -5 0 -11 5 -13 12 -2 6 -14 -2 -25 -18z"/>
<path d="M2250 1711 l-45 -7 39 -12 c29 -8 43 -8 53 0 14 11 18 29 6 26 -5 0
-28 -4 -53 -7z"/>
<path d="M2745 1690 c3 -5 13 -10 21 -10 8 0 14 5 14 10 0 6 -9 10 -21 10 -11
0 -17 -4 -14 -10z"/>
<path d="M2055 1648 c-64 -33 -132 -97 -141 -134 -3 -13 -14 -30 -25 -40 -10
-9 -19 -23 -19 -31 0 -7 -7 -13 -16 -13 -11 0 -14 -6 -9 -20 4 -11 2 -20 -4
-20 -6 0 -15 -9 -21 -20 -9 -16 -7 -28 4 -52 9 -17 14 -34 11 -36 -3 -3 -5 -2
-5 2 0 4 -10 -5 -23 -19 -22 -26 -57 -27 -57 -1 0 6 -9 22 -19 35 -25 33 -57
21 -70 -26 -6 -20 -8 -40 -6 -44 3 -4 -9 -10 -25 -14 -37 -8 -34 -31 3 -27 20
2 25 -1 21 -13 -3 -8 -18 -15 -32 -15 -14 0 -22 -3 -19 -7 4 -3 2 -12 -4 -19
-14 -18 -4 -44 16 -44 12 0 15 -6 10 -22 -12 -38 -11 -43 8 -40 9 2 17 -2 17
-8 0 -5 -6 -10 -13 -10 -8 0 -20 -11 -27 -25 -7 -14 -21 -25 -31 -25 -10 0
-19 -8 -22 -17 -3 -16 -5 -16 -12 2 -11 24 -35 50 -36 38 -1 -4 -4 6 -8 22 -4
17 -13 29 -20 27 -10 -2 -12 6 -6 34 6 33 4 36 -12 29 -10 -4 -27 -8 -38 -9
-31 -2 -32 -58 -2 -98 29 -39 41 -67 38 -89 -1 -9 7 -19 19 -22 13 -3 18 -10
14 -21 -3 -9 -1 -16 5 -16 6 0 10 -3 10 -7 -4 -22 2 -43 11 -43 7 0 7 6 0 20
-6 11 -7 20 -1 20 12 0 23 -29 15 -42 -3 -5 1 -17 9 -26 19 -22 81 -290 92
-397 2 -22 6 -99 9 -171 3 -72 9 -145 12 -163 l7 -32 111 3 c96 3 111 5 111
20 0 9 8 24 16 35 9 10 24 33 33 50 9 18 21 33 26 33 6 0 9 3 8 8 -4 15 14 72
21 68 4 -3 8 9 8 27 1 49 13 118 30 164 9 23 13 49 9 58 -3 9 -1 48 4 88 5 40
14 108 20 152 15 116 42 497 37 517 -3 9 2 27 10 39 13 17 15 42 10 127 -4 88
-2 114 15 161 29 82 33 112 17 122 -21 13 -28 11 -94 -23z m-365 -372 c0 -8
-4 -18 -10 -21 -5 -3 -10 3 -10 14 0 12 5 21 10 21 6 0 10 -6 10 -14z m180
-30 c0 -3 -8 -12 -17 -22 -10 -9 -19 -35 -20 -56 -3 -41 -25 -74 -43 -63 -13
8 -13 125 0 125 6 0 15 -10 20 -22 5 -13 9 -17 9 -9 1 23 51 69 51 47z m-265
-305 c3 -5 1 -12 -4 -15 -5 -3 -11 1 -15 9 -6 16 9 21 19 6z"/>
<path d="M1435 1631 c-2 -5 4 -11 15 -14 11 -3 20 -2 20 3 0 12 -28 21 -35 11z"/>
<path d="M1503 1565 c0 -8 4 -15 9 -15 5 0 20 -12 33 -27 13 -16 25 -23 25
-17 0 5 -15 25 -33 42 -23 22 -34 28 -34 17z"/>
<path d="M1266 1497 c3 -10 9 -15 12 -12 3 3 0 11 -7 18 -10 9 -11 8 -5 -6z"/>
<path d="M1325 1490 c-9 -10 -14 -24 -10 -31 6 -8 10 -7 17 5 5 9 16 16 23 16
19 0 19 16 1 23 -8 3 -22 -3 -31 -13z"/>
<path d="M1587 1484 c-7 -8 42 -54 57 -54 6 0 -3 14 -19 30 -32 34 -30 32 -38
24z"/>
<path d="M590 1447 c0 -11 109 -122 115 -116 6 6 -10 25 -73 84 -23 21 -42 36
-42 32z"/>
<path d="M760 1266 c0 -2 7 -9 15 -16 13 -11 14 -10 9 4 -5 14 -24 23 -24 12z"/>
<path d="M811 1213 c37 -46 69 -75 69 -62 0 8 -16 29 -35 47 -38 35 -56 43
-34 15z"/>
<path d="M5986 1211 c-19 -21 -21 -62 -4 -79 18 -18 53 -14 73 8 10 11 15 20
10 20 -4 0 -2 6 4 14 11 13 6 45 -8 47 -43 8 -61 5 -75 -10z"/>
<path d="M1540 1180 c-8 -15 -8 -20 2 -20 15 1 48 24 48 34 0 15 -40 4 -50
-14z"/>
<path d="M1470 1141 c0 -5 -13 -12 -30 -15 -16 -3 -43 -9 -60 -12 -16 -3 -30
-10 -30 -15 0 -6 7 -6 18 0 9 5 37 10 62 12 42 4 59 13 60 32 0 4 -4 7 -10 7
-5 0 -10 -4 -10 -9z"/>
<path d="M1566 1133 c-8 -25 -7 -33 1 -30 5 1 7 8 5 15 -2 6 2 12 8 12 5 0 10
5 10 10 0 17 -18 11 -24 -7z"/>
<path d="M917 1105 c43 -55 80 -88 86 -78 11 18 16 63 6 63 -5 0 -9 -7 -9 -16
0 -8 -4 -12 -10 -9 -5 3 -10 18 -10 32 0 21 -2 24 -15 13 -11 -9 -15 -9 -15
-1 0 7 -5 9 -11 6 -5 -4 -20 1 -32 12 -13 11 -9 2 10 -22z"/>
<path d="M1266 1041 c-4 -7 -5 -15 -2 -18 9 -9 19 4 14 18 -4 11 -6 11 -12 0z"/>
<path d="M1220 1000 c0 -5 5 -10 11 -10 5 0 7 5 4 10 -3 6 -8 10 -11 10 -2 0
-4 -4 -4 -10z"/>
<path d="M3367 950 c-9 -11 -13 -20 -7 -20 5 0 12 5 15 10 3 6 15 10 26 10 11
0 17 5 14 10 -10 16 -29 12 -48 -10z"/>
<path d="M1314 708 c18 -59 56 -138 67 -138 5 0 9 9 9 20 0 23 9 25 33 8 13
-10 15 -20 9 -43 -6 -22 -5 -33 5 -40 8 -6 11 -18 7 -28 -6 -17 -7 -17 -20 0
-18 25 -17 9 2 -29 9 -17 13 -40 10 -52 -6 -22 7 -72 30 -119 7 -15 11 -34 7
-43 -3 -8 -1 -25 5 -37 6 -12 20 -53 32 -92 33 -109 38 -115 81 -115 26 0 37
4 34 13 -2 6 -6 82 -9 167 -7 167 -19 273 -44 360 -15 56 -48 104 -63 94 -5
-3 -9 4 -9 14 0 11 -9 30 -20 43 l-19 24 -1 -45 0 -45 -20 33 c-11 18 -25 30
-31 27 -7 -5 -5 -13 5 -24 20 -22 21 -45 1 -38 -8 4 -17 2 -20 -3 -11 -18 -22
-10 -35 23 -27 73 -43 107 -51 107 -4 0 -2 -19 5 -42z m175 -128 c14 -29 16
-40 6 -40 -7 0 -17 18 -23 40 -5 22 -8 40 -6 40 2 0 12 -18 23 -40z m41 -93
c0 -18 -2 -19 -10 -7 -13 20 -13 43 0 35 6 -3 10 -16 10 -28z"/>
<path d="M1380 728 c0 -18 18 -34 28 -24 3 4 -2 14 -11 23 -16 16 -17 16 -17
1z"/>
<path d="M707 579 c-10 -6 -57 -10 -105 -9 -100 1 -110 1 -257 -13 -60 -5
-114 -9 -120 -9 -5 0 -43 3 -83 6 -60 4 -72 3 -72 -10 0 -10 -6 -13 -19 -9
-43 13 -51 -2 -51 -95 0 -51 4 -92 10 -95 6 -4 29 -8 50 -10 22 -1 47 -8 55
-15 8 -7 43 -14 78 -15 34 -1 74 -8 87 -16 14 -7 28 -13 32 -14 3 0 9 -2 12
-5 3 -3 37 -5 76 -3 38 1 70 -1 70 -5 0 -5 22 -7 50 -6 38 2 52 -2 60 -14 9
-16 11 -16 21 1 8 13 14 15 23 8 13 -11 11 -15 95 197 32 81 39 108 31 123
-12 22 -18 23 -43 8z"/>
<path d="M2492 499 c2 -6 8 -10 13 -10 5 0 11 4 13 10 2 6 -4 11 -13 11 -9 0
-15 -5 -13 -11z"/>
<path d="M936 452 c-3 -6 -1 -14 5 -17 15 -10 25 3 12 16 -7 7 -13 7 -17 1z"/>
<path d="M1039 376 c59 -37 82 -52 116 -78 13 -10 27 -18 32 -18 5 0 22 -13
38 -30 15 -16 33 -28 39 -27 6 1 10 -6 10 -15 -2 -22 25 -32 32 -13 7 17 -33
85 -49 85 -7 0 -38 16 -70 35 -32 19 -62 35 -67 35 -5 0 -29 14 -53 30 -25 17
-53 30 -63 30 -12 0 2 -14 35 -34z"/>
<path d="M1231 390 c0 -8 4 -22 9 -30 12 -18 12 -2 0 25 -6 13 -9 15 -9 5z"/>
<path d="M2525 270 c-3 -6 1 -7 9 -4 18 7 21 14 7 14 -6 0 -13 -4 -16 -10z"/>
<path d="M2580 245 c0 -8 5 -15 10 -15 6 0 10 7 10 15 0 8 -4 15 -10 15 -5 0
-10 -7 -10 -15z"/>
<path d="M3041 204 c0 -11 3 -14 6 -6 3 7 2 16 -1 19 -3 4 -6 -2 -5 -13z"/>
<path d="M1143 152 c9 -10 17 -25 18 -33 0 -8 5 -3 10 11 6 14 13 20 17 14 4
-6 16 -14 27 -19 19 -8 19 -9 -2 -12 -20 -4 -21 -7 -12 -24 10 -19 4 -79 -8
-79 -3 0 -11 6 -17 14 -9 11 -71 36 -161 63 -38 12 13 -35 53 -48 20 -7 43
-18 50 -26 10 -9 47 -13 138 -13 68 0 124 2 124 4 0 2 -10 25 -22 52 -12 27
-23 54 -23 59 -1 6 -6 9 -13 7 -7 -1 -12 2 -12 8 0 5 -7 7 -15 4 -9 -4 -15 0
-15 7 0 11 -2 11 -10 -1 -8 -12 -11 -12 -27 2 -10 9 -40 19 -67 23 -48 5 -49
5 -33 -13z m97 -126 c0 -3 -4 -8 -10 -11 -5 -3 -10 -1 -10 4 0 6 5 11 10 11 6
0 10 -2 10 -4z"/>
<path d="M2577 144 c-8 -8 1 -24 14 -24 5 0 9 7 9 15 0 15 -12 20 -23 9z"/>
<path d="M1175 70 c3 -5 8 -10 11 -10 2 0 4 5 4 10 0 6 -5 10 -11 10 -5 0 -7
-4 -4 -10z"/>
<path d="M6404 45 c-18 -14 -17 -14 11 -10 17 3 37 1 45 -4 23 -16 8 -20 -40
-11 -25 5 -47 5 -50 1 -3 -5 -12 -10 -20 -14 -8 -3 31 -5 88 -6 l103 0 -3 27
c-3 29 -38 45 -38 18 0 -9 5 -16 10 -16 6 0 10 -4 10 -10 0 -17 -20 -11 -54
15 -39 29 -37 29 -62 10z"/>
<path d="M6295 10 c-3 -5 -1 -10 4 -10 6 0 11 5 11 10 0 6 -2 10 -4 10 -3 0
-8 -4 -11 -10z"/>
</g>
</svg>
